<svg height="56" width="56" version="1.1" viewBox="0 0 96 96" xmlns="http://www.w3.org/2000/svg" xmlns:xlink="http://www.w3.org/1999/xlink" id="Icons_Court" overflow="hidden"><path d=" M 79 75 L 79 73 L 76 73 L 76 39 L 79 39 L 79 37 L 82 37 L 82 31 L 79 31 L 48 12 L 17 31 L 14 31 L 14 37 L 17 37 L 17 39 L 20 39 L 20 73 L 17 73 L 17 75 L 10 80 L 10 84 L 86 84 L 86 80 L 79 75 Z M 36 73 L 28 73 L 28 39 L 36 39 L 36 73 Z M 52 73 L 44 73 L 44 39 L 52 39 L 52 73 Z M 68 73 L 60 73 L 60 39 L 68 39 L 68 73 Z"/><g id="Icons_Layer_2" display="none"><rect x="45" y="0" width="8" height="8" fill="#ED1C24" display="inline"/><rect x="84" y="84" width="12" height="12" fill="#ED1C24" display="inline"/><rect x="86" y="70" width="10" height="12" fill="#ED1C24" display="inline"/></g></svg>