<svg color="current" height="56" width="56" version="1.1" viewBox="0 0 96 96" xmlns="http://www.w3.org/2000/svg" xmlns:xlink="http://www.w3.org/1999/xlink" id="Icons_Bus" overflow="hidden"><path d=" M 8 30 C 8 28.9 8.9 28 10 28 L 24 28 L 24 44 L 8 44 L 8 30 Z M 28 28 L 44 28 L 44 44 L 28 44 L 28 28 Z M 48 28 L 64 28 L 64 44 L 48 44 L 48 28 Z M 68 28 L 81.3 28 C 83.2 28 84.9 29.4 85.2 31.3 L 87.5 45.5 C 87.7 47 87.9 48.5 87.9 50 L 74 50 L 68 44 L 68 28 Z M 4 28 L 4 64 C 4 66.2 5.8 68 8 68 L 8.2 68 C 8.1 67.4 8 66.7 8 66 C 8 60.5 12.5 56 18 56 C 23.5 56 28 60.5 28 66 C 28 66.7 27.9 67.4 27.8 68 L 64.2 68 C 64.1 67.4 64 66.7 64 66 C 64 60.5 68.5 56 74 56 C 79.5 56 84 60.5 84 66 C 84 66.7 83.9 67.4 83.8 68 L 88 68 C 90.2 68 92 66.2 92 64 L 92 51.2 C 92 49.1 91.8 46.9 91.5 44.8 L 89.2 30.5 C 88.5 26.7 85.2 23.9 81.3 23.9 L 8 23.9 C 5.8 24 4 25.8 4 28 Z"/><circle cx="74" cy="66" r="7"/><circle cx="18" cy="66" r="7"/></svg>