<svg height="56" width="56" version="1.1" viewBox="0 0 96 96" xmlns="http://www.w3.org/2000/svg" xmlns:xlink="http://www.w3.org/1999/xlink" id="Icons_Dress" overflow="hidden"><path d=" M 81.5 77.8 L 57.7 36.2 C 57.3 35.4 57 34.6 57 33.7 C 57 33.3 57.1 32.8 57.2 32.4 L 60.3 20.9 C 60.4 20.4 60.9 20.1 61.4 20.2 L 69.7 21 C 70 21 70.2 20.9 70.2 20.6 L 72 12.5 C 72.1 12.3 71.9 12 71.7 11.9 L 64 9.1 C 62 8.4 59.9 8 57.8 8 L 57 8 C 56.4 8 56 8.4 56 9 L 56 10 C 56 14.4 52.4 18 48 18 C 43.6 18 40 14.4 40 10 L 40 9 C 40 8.4 39.6 8 39 8 L 38.2 8 C 36.1 8 34 8.4 32 9.1 L 24.4 11.9 C 24.2 12 24 12.2 24.1 12.5 L 25.9 20.6 C 26 20.8 26.2 21 26.4 21 L 34.7 20.2 C 35.2 20.2 35.6 20.5 35.8 20.9 L 38.9 32.4 C 39 32.8 39.1 33.3 39.1 33.7 C 39.1 34.6 38.9 35.4 38.4 36.2 L 14.5 77.8 C 14 78.7 14.2 79.8 15.1 80.4 C 21.3 84.9 33.7 88 48 88 C 62.3 88 74.7 84.9 80.9 80.4 C 81.7 79.8 82 78.7 81.5 77.8 Z"/></svg>