<?xml version="1.0" encoding="utf-8"?>
<svg viewBox="0 0 752 752" height="56" width="56" xmlns="http://www.w3.org/2000/svg">
  <path d="M 726.073 292.75 L 726.073 318.919 C 687.96 333.983 654.504 350.634 565.04 350.634 L 186.961 350.634 C 97.498 350.634 64.05 334.775 25.927 318.919 L 25.927 292.75 C 25.927 286.408 31.373 280.856 37.598 280.856 C 43.821 280.856 49.267 286.408 49.267 292.75 L 49.267 293.543 C 91.272 289.581 118.504 278.477 149.624 255.491 L 179.966 165.901 L 178.41 144.49 C 178.41 140.527 181.521 137.355 185.412 137.355 C 189.302 137.355 192.416 140.527 192.416 144.49 L 193.97 160.349 C 216.532 167.487 275.652 181.758 376.01 181.758 C 476.365 181.758 535.487 167.486 558.049 160.349 L 559.605 144.49 C 559.605 140.527 562.717 137.355 566.607 137.355 C 570.497 137.355 573.609 140.527 573.609 144.49 L 572.052 165.108 C 576.722 180.172 602.395 254.699 602.395 254.699 C 633.515 277.693 660.738 288.004 702.751 292.752 L 702.751 291.959 C 702.751 285.616 708.197 280.064 714.423 280.064 C 721.398 280.866 726.068 286.416 726.068 292.752 Z M 565.04 365.691 C 603.153 365.691 631.941 362.519 654.501 358.556 C 652.944 367.278 645.165 373.623 635.83 373.623 L 631.161 373.623 C 631.161 383.928 622.605 392.65 612.489 392.65 L 603.153 392.65 L 603.153 409.302 C 603.153 419.611 594.593 428.333 584.48 428.333 L 584.48 547.256 L 624.938 547.256 L 624.938 566.286 L 620.269 566.286 L 620.269 614.645 L 132.501 614.645 L 132.501 566.286 L 127.834 566.286 L 127.834 547.256 L 168.291 547.256 L 168.291 428.333 C 158.176 428.333 149.619 419.611 149.619 409.302 L 149.619 392.65 L 140.282 392.65 C 130.168 392.65 121.611 383.928 121.611 373.623 L 116.942 373.623 C 107.605 373.623 99.826 367.278 98.27 358.556 C 120.831 363.313 149.611 365.691 187.733 365.691 L 301.306 365.691 L 301.306 404.535 L 453.004 404.535 L 453.004 365.691 Z M 381.443 428.333 L 381.443 547.256 L 452.237 547.256 L 452.237 428.333 Z M 300.538 428.333 L 300.538 547.256 L 372.107 547.256 L 372.107 428.333 Z M 200.97 547.256 L 267.09 547.256 L 267.09 428.333 L 200.97 428.333 Z M 551.039 428.333 L 484.917 428.333 L 484.917 547.256 L 551.039 547.256 Z" style=""/>
</svg>