<svg width="250" height="35.56" viewBox="0 0 232 33" fill="black" xmlns="http://www.w3.org/2000/svg">
<path d="M7.45312 8.19922C7.45312 8.52734 7.44531 8.94922 7.42969 9.46484C7.41406 9.97266 7.39453 10.5977 7.37109 11.3398C7.34766 12.082 7.32031 12.9492 7.28906 13.9414C7.25781 14.9258 7.22656 16.0547 7.19531 17.3281C8.32031 17.2891 9.40234 17.2578 10.4414 17.2344C11.4805 17.2031 12.5039 17.1797 13.5117 17.1641C14.5273 17.1406 15.543 17.125 16.5586 17.1172C17.5742 17.1016 18.6211 17.0898 19.6992 17.082C19.7227 16.2852 19.7461 15.4883 19.7695 14.6914C19.8008 13.8945 19.8359 13.0547 19.875 12.1719C19.9141 11.2891 19.9609 10.3398 20.0156 9.32422C20.0781 8.30859 20.1523 7.18359 20.2383 5.94922C20.2461 5.77734 20.2969 5.63281 20.3906 5.51562C20.4922 5.39062 20.6172 5.28906 20.7656 5.21094C20.9219 5.125 21.0938 5.0625 21.2812 5.02344C21.4688 4.98438 21.6562 4.96484 21.8438 4.96484C22.0703 4.96484 22.3125 4.99609 22.5703 5.05859C22.8359 5.11328 23.0938 5.19531 23.3438 5.30469C23.2266 6.58594 23.1211 7.8125 23.0273 8.98438C22.9414 10.1562 22.8672 11.2969 22.8047 12.4062C22.7422 13.5156 22.6875 14.6133 22.6406 15.6992C22.5938 16.7773 22.5586 17.8672 22.5352 18.9688C22.5117 20.0703 22.4922 21.1953 22.4766 22.3438C22.4688 23.4922 22.4648 24.6914 22.4648 25.9414C22.4648 26.7695 22.5 27.4766 22.5703 28.0625C22.6406 28.6484 22.7617 29.1289 22.9336 29.5039C23.1133 29.8711 23.3516 30.1406 23.6484 30.3125C23.9453 30.4844 24.3164 30.5703 24.7617 30.5703C25.082 30.5703 25.4141 30.5469 25.7578 30.5C26.1016 30.4453 26.5273 30.3242 27.0352 30.1367L27.3633 31.0977C26.8008 31.3398 26.2773 31.5508 25.793 31.7305C25.3086 31.9102 24.8555 32.0586 24.4336 32.1758C24.0195 32.293 23.6328 32.3789 23.2734 32.4336C22.9141 32.4961 22.5703 32.5273 22.2422 32.5273C21.7969 32.5273 21.4062 32.4414 21.0703 32.2695C20.7344 32.1055 20.4531 31.832 20.2266 31.4492C20.0078 31.0664 19.8438 30.5625 19.7344 29.9375C19.625 29.3125 19.5703 28.5391 19.5703 27.6172V24.957C19.5703 24.3398 19.5703 23.7539 19.5703 23.1992C19.5781 22.6367 19.5859 22.0938 19.5938 21.5703C19.6016 21.0469 19.6094 20.5391 19.6172 20.0469C19.625 19.5547 19.6367 19.0664 19.6523 18.582C18.5742 18.582 17.5273 18.5859 16.5117 18.5938C15.5039 18.6016 14.4922 18.6172 13.4766 18.6406C12.4688 18.6641 11.4414 18.6953 10.3945 18.7344C9.35547 18.7734 8.27344 18.8203 7.14844 18.875L6.75 32L3.97266 32.3516L3.76172 32.3281C3.85547 30.0859 3.9375 27.957 4.00781 25.9414C4.08594 23.918 4.15234 21.9531 4.20703 20.0469C4.26172 18.1406 4.30078 16.2617 4.32422 14.4102C4.35547 12.5586 4.37109 10.6797 4.37109 8.77344C4.37109 8.40625 4.34375 8.09375 4.28906 7.83594C4.24219 7.57031 4.14844 7.35547 4.00781 7.19141C3.86719 7.02734 3.67188 6.91016 3.42188 6.83984C3.17969 6.76172 2.86719 6.72266 2.48438 6.72266C1.96875 6.72266 1.30859 6.78125 0.503906 6.89844L0.386719 5.92578C1.51953 5.63672 2.48047 5.42188 3.26953 5.28125C4.05859 5.13281 4.71875 5.05859 5.25 5.05859C5.77344 5.05859 6.18359 5.12891 6.48047 5.26953C6.77734 5.40234 6.99609 5.60547 7.13672 5.87891C7.28516 6.14453 7.375 6.47266 7.40625 6.86328C7.4375 7.25391 7.45312 7.69922 7.45312 8.19922ZM39.9023 28.3672C39.9492 28.3906 40.0078 28.4258 40.0781 28.4727C40.1562 28.5117 40.2266 28.5586 40.2891 28.6133C40.3516 28.6602 40.4062 28.7148 40.4531 28.7773C40.5 28.832 40.5234 28.8867 40.5234 28.9414C40.5234 28.9727 40.5117 29.0039 40.4883 29.0352C40.0508 29.6445 39.5781 30.1758 39.0703 30.6289C38.5703 31.0742 38.0469 31.4492 37.5 31.7539C36.9609 32.0508 36.4102 32.2695 35.8477 32.4102C35.2852 32.5586 34.7305 32.6328 34.1836 32.6328C33.2461 32.6328 32.3867 32.4414 31.6055 32.0586C30.8242 31.6758 30.1523 31.1523 29.5898 30.4883C29.0273 29.8242 28.5859 29.0469 28.2656 28.1562C27.9531 27.2578 27.7969 26.2969 27.7969 25.2734C27.7969 24.4375 27.8867 23.6016 28.0664 22.7656C28.2539 21.9297 28.5195 21.1328 28.8633 20.375C29.2148 19.6172 29.6406 18.9141 30.1406 18.2656C30.6406 17.6094 31.207 17.043 31.8398 16.5664C32.4805 16.082 33.1797 15.7031 33.9375 15.4297C34.7031 15.1562 35.5234 15.0195 36.3984 15.0195C36.9766 15.0195 37.5273 15.0977 38.0508 15.2539C38.5742 15.4102 39.0312 15.6367 39.4219 15.9336C39.8203 16.2227 40.1367 16.582 40.3711 17.0117C40.6055 17.4414 40.7227 17.9297 40.7227 18.4766C40.7227 19.2734 40.4609 19.9688 39.9375 20.5625C39.4219 21.1562 38.707 21.6602 37.793 22.0742C36.8789 22.4883 35.8008 22.8242 34.5586 23.082C33.3242 23.332 31.9883 23.5195 30.5508 23.6445V23.8438C30.5508 24.8438 30.6758 25.7578 30.9258 26.5859C31.1836 27.4141 31.5352 28.125 31.9805 28.7188C32.4258 29.3047 32.9492 29.7617 33.5508 30.0898C34.1523 30.418 34.8008 30.582 35.4961 30.582C36.1992 30.582 36.918 30.4102 37.6523 30.0664C38.3945 29.7148 39.1445 29.1484 39.9023 28.3672ZM37.6992 18.957C37.6992 18.5977 37.6367 18.2617 37.5117 17.9492C37.3945 17.6367 37.2266 17.3672 37.0078 17.1406C36.7969 16.9062 36.543 16.7227 36.2461 16.5898C35.9492 16.457 35.6289 16.3906 35.2852 16.3906C34.7773 16.3906 34.3164 16.4805 33.9023 16.6602C33.4883 16.8398 33.1172 17.0859 32.7891 17.3984C32.4609 17.7031 32.1719 18.0625 31.9219 18.4766C31.6719 18.8828 31.457 19.3164 31.2773 19.7773C31.1055 20.2383 30.9648 20.7109 30.8555 21.1953C30.7461 21.6797 30.668 22.1523 30.6211 22.6133C31.7305 22.5352 32.7227 22.4023 33.5977 22.2148C34.4805 22.0195 35.2227 21.7734 35.8242 21.4766C36.4336 21.1719 36.8984 20.8125 37.2188 20.3984C37.5391 19.9766 37.6992 19.4961 37.6992 18.957ZM54.7148 28.3672C54.7617 28.3906 54.8203 28.4258 54.8906 28.4727C54.9688 28.5117 55.0391 28.5586 55.1016 28.6133C55.1641 28.6602 55.2188 28.7148 55.2656 28.7773C55.3125 28.832 55.3359 28.8867 55.3359 28.9414C55.3359 28.9727 55.3242 29.0039 55.3008 29.0352C54.8633 29.6445 54.3906 30.1758 53.8828 30.6289C53.3828 31.0742 52.8594 31.4492 52.3125 31.7539C51.7734 32.0508 51.2227 32.2695 50.6602 32.4102C50.0977 32.5586 49.543 32.6328 48.9961 32.6328C48.0586 32.6328 47.1992 32.4414 46.418 32.0586C45.6367 31.6758 44.9648 31.1523 44.4023 30.4883C43.8398 29.8242 43.3984 29.0469 43.0781 28.1562C42.7656 27.2578 42.6094 26.2969 42.6094 25.2734C42.6094 24.4375 42.6992 23.6016 42.8789 22.7656C43.0664 21.9297 43.332 21.1328 43.6758 20.375C44.0273 19.6172 44.4531 18.9141 44.9531 18.2656C45.4531 17.6094 46.0195 17.043 46.6523 16.5664C47.293 16.082 47.9922 15.7031 48.75 15.4297C49.5156 15.1562 50.3359 15.0195 51.2109 15.0195C51.7891 15.0195 52.3398 15.0977 52.8633 15.2539C53.3867 15.4102 53.8438 15.6367 54.2344 15.9336C54.6328 16.2227 54.9492 16.582 55.1836 17.0117C55.418 17.4414 55.5352 17.9297 55.5352 18.4766C55.5352 19.2734 55.2734 19.9688 54.75 20.5625C54.2344 21.1562 53.5195 21.6602 52.6055 22.0742C51.6914 22.4883 50.6133 22.8242 49.3711 23.082C48.1367 23.332 46.8008 23.5195 45.3633 23.6445V23.8438C45.3633 24.8438 45.4883 25.7578 45.7383 26.5859C45.9961 27.4141 46.3477 28.125 46.793 28.7188C47.2383 29.3047 47.7617 29.7617 48.3633 30.0898C48.9648 30.418 49.6133 30.582 50.3086 30.582C51.0117 30.582 51.7305 30.4102 52.4648 30.0664C53.207 29.7148 53.957 29.1484 54.7148 28.3672ZM52.5117 18.957C52.5117 18.5977 52.4492 18.2617 52.3242 17.9492C52.207 17.6367 52.0391 17.3672 51.8203 17.1406C51.6094 16.9062 51.3555 16.7227 51.0586 16.5898C50.7617 16.457 50.4414 16.3906 50.0977 16.3906C49.5898 16.3906 49.1289 16.4805 48.7148 16.6602C48.3008 16.8398 47.9297 17.0859 47.6016 17.3984C47.2734 17.7031 46.9844 18.0625 46.7344 18.4766C46.4844 18.8828 46.2695 19.3164 46.0898 19.7773C45.918 20.2383 45.7773 20.7109 45.668 21.1953C45.5586 21.6797 45.4805 22.1523 45.4336 22.6133C46.543 22.5352 47.5352 22.4023 48.4102 22.2148C49.293 22.0195 50.0352 21.7734 50.6367 21.4766C51.2461 21.1719 51.7109 20.8125 52.0312 20.3984C52.3516 19.9766 52.5117 19.4961 52.5117 18.957ZM59.3672 27.7695C59.4219 28.3633 59.5781 28.875 59.8359 29.3047C60.1016 29.7344 60.4258 30.0859 60.8086 30.3594C61.1914 30.6328 61.6133 30.8359 62.0742 30.9688C62.543 31.1016 63.0078 31.168 63.4688 31.168C63.8984 31.168 64.3125 31.1094 64.7109 30.9922C65.1094 30.875 65.4609 30.707 65.7656 30.4883C66.0703 30.2695 66.3125 30 66.4922 29.6797C66.6797 29.3594 66.7734 29 66.7734 28.6016C66.7734 28.1875 66.6758 27.8242 66.4805 27.5117C66.2852 27.1992 66.0234 26.9141 65.6953 26.6562C65.3672 26.3984 64.9844 26.1602 64.5469 25.9414C64.1172 25.7227 63.668 25.5 63.1992 25.2734C62.7852 25.0781 62.3672 24.8828 61.9453 24.6875C61.5312 24.4844 61.1289 24.2656 60.7383 24.0312C60.3477 23.7969 59.9805 23.543 59.6367 23.2695C59.3008 22.9961 59.0039 22.6953 58.7461 22.3672C58.4961 22.0312 58.2969 21.6602 58.1484 21.2539C58.0078 20.8398 57.9375 20.3828 57.9375 19.8828C57.9375 19.3438 58.0312 18.8477 58.2188 18.3945C58.4062 17.9414 58.6602 17.5352 58.9805 17.1758C59.3086 16.8086 59.6836 16.4883 60.1055 16.2148C60.5352 15.9414 60.9922 15.7148 61.4766 15.5352C61.9609 15.3477 62.457 15.2109 62.9648 15.125C63.4805 15.0312 63.9805 14.9844 64.4648 14.9844C65.0898 14.9844 65.6797 15.0547 66.2344 15.1953C66.7969 15.3281 67.2852 15.5273 67.6992 15.793C68.1211 16.0508 68.4531 16.3672 68.6953 16.7422C68.9453 17.1172 69.0703 17.5391 69.0703 18.0078C69.0703 18.1875 69.0391 18.3828 68.9766 18.5938C68.9141 18.8047 68.8086 19.0039 68.6602 19.1914C68.5117 19.3711 68.3164 19.5234 68.0742 19.6484C67.832 19.7734 67.5352 19.8398 67.1836 19.8477C66.8555 19.8477 66.5117 19.7969 66.1523 19.6953L66.1172 19.5781C66.2266 19.3281 66.3047 19.0977 66.3516 18.8867C66.3984 18.6758 66.4219 18.4805 66.4219 18.3008C66.4141 17.9414 66.3203 17.6406 66.1406 17.3984C65.9688 17.1484 65.75 16.9453 65.4844 16.7891C65.2188 16.6328 64.9219 16.5195 64.5938 16.4492C64.2734 16.3789 63.957 16.3438 63.6445 16.3438C63.0898 16.3438 62.5938 16.418 62.1562 16.5664C61.7188 16.7148 61.3477 16.9141 61.043 17.1641C60.7461 17.4062 60.5156 17.6836 60.3516 17.9961C60.1953 18.3086 60.1172 18.6328 60.1172 18.9688C60.1172 19.3984 60.2305 19.7852 60.457 20.1289C60.6836 20.4648 60.9844 20.7773 61.3594 21.0664C61.7344 21.3477 62.1641 21.6133 62.6484 21.8633C63.1406 22.1133 63.6523 22.3633 64.1836 22.6133C64.7773 22.8945 65.3672 23.1875 65.9531 23.4922C66.5391 23.7891 67.0625 24.1289 67.5234 24.5117C67.9844 24.8945 68.3555 25.3359 68.6367 25.8359C68.9258 26.3281 69.0703 26.9102 69.0703 27.582C69.0703 28.3867 68.8906 29.1016 68.5312 29.7266C68.1797 30.3516 67.707 30.8789 67.1133 31.3086C66.5195 31.7383 65.8359 32.0625 65.0625 32.2812C64.2969 32.5078 63.5 32.6211 62.6719 32.6211C62.2578 32.6211 61.8281 32.5898 61.3828 32.5273C60.9453 32.4648 60.5195 32.3711 60.1055 32.2461C59.6914 32.1211 59.2969 31.9688 58.9219 31.7891C58.5547 31.6016 58.2305 31.3906 57.9492 31.1562C57.6758 30.9141 57.457 30.6484 57.293 30.3594C57.1367 30.0625 57.0586 29.7383 57.0586 29.3867C57.0586 29.082 57.1211 28.8242 57.2461 28.6133C57.3789 28.4023 57.5508 28.2305 57.7617 28.0977C57.9727 27.9648 58.207 27.8672 58.4648 27.8047C58.7305 27.7344 59 27.6953 59.2734 27.6875L59.3672 27.7695ZM83.4492 28.3672C83.4961 28.3906 83.5547 28.4258 83.625 28.4727C83.7031 28.5117 83.7734 28.5586 83.8359 28.6133C83.8984 28.6602 83.9531 28.7148 84 28.7773C84.0469 28.832 84.0703 28.8867 84.0703 28.9414C84.0703 28.9727 84.0586 29.0039 84.0352 29.0352C83.5977 29.6445 83.125 30.1758 82.6172 30.6289C82.1172 31.0742 81.5938 31.4492 81.0469 31.7539C80.5078 32.0508 79.957 32.2695 79.3945 32.4102C78.832 32.5586 78.2773 32.6328 77.7305 32.6328C76.793 32.6328 75.9336 32.4414 75.1523 32.0586C74.3711 31.6758 73.6992 31.1523 73.1367 30.4883C72.5742 29.8242 72.1328 29.0469 71.8125 28.1562C71.5 27.2578 71.3438 26.2969 71.3438 25.2734C71.3438 24.4375 71.4336 23.6016 71.6133 22.7656C71.8008 21.9297 72.0664 21.1328 72.4102 20.375C72.7617 19.6172 73.1875 18.9141 73.6875 18.2656C74.1875 17.6094 74.7539 17.043 75.3867 16.5664C76.0273 16.082 76.7266 15.7031 77.4844 15.4297C78.25 15.1562 79.0703 15.0195 79.9453 15.0195C80.5234 15.0195 81.0742 15.0977 81.5977 15.2539C82.1211 15.4102 82.5781 15.6367 82.9688 15.9336C83.3672 16.2227 83.6836 16.582 83.918 17.0117C84.1523 17.4414 84.2695 17.9297 84.2695 18.4766C84.2695 19.2734 84.0078 19.9688 83.4844 20.5625C82.9688 21.1562 82.2539 21.6602 81.3398 22.0742C80.4258 22.4883 79.3477 22.8242 78.1055 23.082C76.8711 23.332 75.5352 23.5195 74.0977 23.6445V23.8438C74.0977 24.8438 74.2227 25.7578 74.4727 26.5859C74.7305 27.4141 75.082 28.125 75.5273 28.7188C75.9727 29.3047 76.4961 29.7617 77.0977 30.0898C77.6992 30.418 78.3477 30.582 79.043 30.582C79.7461 30.582 80.4648 30.4102 81.1992 30.0664C81.9414 29.7148 82.6914 29.1484 83.4492 28.3672ZM81.2461 18.957C81.2461 18.5977 81.1836 18.2617 81.0586 17.9492C80.9414 17.6367 80.7734 17.3672 80.5547 17.1406C80.3438 16.9062 80.0898 16.7227 79.793 16.5898C79.4961 16.457 79.1758 16.3906 78.832 16.3906C78.3242 16.3906 77.8633 16.4805 77.4492 16.6602C77.0352 16.8398 76.6641 17.0859 76.3359 17.3984C76.0078 17.7031 75.7188 18.0625 75.4688 18.4766C75.2188 18.8828 75.0039 19.3164 74.8242 19.7773C74.6523 20.2383 74.5117 20.7109 74.4023 21.1953C74.293 21.6797 74.2148 22.1523 74.168 22.6133C75.2773 22.5352 76.2695 22.4023 77.1445 22.2148C78.0273 22.0195 78.7695 21.7734 79.3711 21.4766C79.9805 21.1719 80.4453 20.8125 80.7656 20.3984C81.0859 19.9766 81.2461 19.4961 81.2461 18.957ZM86.2734 25.2617C86.2734 24.4727 86.3555 23.6719 86.5195 22.8594C86.6836 22.0469 86.9258 21.2617 87.2461 20.5039C87.5664 19.7383 87.9609 19.0234 88.4297 18.3594C88.9062 17.6875 89.4531 17.1016 90.0703 16.6016C90.6875 16.1016 91.375 15.707 92.1328 15.418C92.8906 15.1289 93.7148 14.9844 94.6055 14.9844C95.6055 14.9844 96.4883 15.1953 97.2539 15.6172C98.0273 16.0391 98.6758 16.5977 99.1992 17.293C99.7227 17.9805 100.117 18.7656 100.383 19.6484C100.656 20.5312 100.793 21.4336 100.793 22.3555C100.793 23.1445 100.711 23.9453 100.547 24.7578C100.383 25.5703 100.137 26.3594 99.8086 27.125C99.4883 27.8828 99.0898 28.5977 98.6133 29.2695C98.1445 29.9336 97.6016 30.5156 96.9844 31.0156C96.3672 31.5156 95.6797 31.9102 94.9219 32.1992C94.1641 32.4883 93.3398 32.6328 92.4492 32.6328C91.4492 32.6328 90.5625 32.4219 89.7891 32C89.0234 31.5781 88.3789 31.0234 87.8555 30.3359C87.3398 29.6406 86.9453 28.8516 86.6719 27.9688C86.4062 27.0859 86.2734 26.1836 86.2734 25.2617ZM89.0742 24.1484C89.0742 24.6797 89.1133 25.2188 89.1914 25.7656C89.2773 26.3125 89.4062 26.8398 89.5781 27.3477C89.75 27.8555 89.9609 28.332 90.2109 28.7773C90.4688 29.2148 90.7695 29.5977 91.1133 29.9258C91.4648 30.2539 91.8555 30.5117 92.2852 30.6992C92.7227 30.8867 93.2031 30.9805 93.7266 30.9805C94.2969 30.9805 94.7969 30.8594 95.2266 30.6172C95.6641 30.3672 96.0391 30.0391 96.3516 29.6328C96.6719 29.2266 96.9336 28.7617 97.1367 28.2383C97.3477 27.7148 97.5156 27.1758 97.6406 26.6211C97.7656 26.0586 97.8516 25.5039 97.8984 24.957C97.9531 24.4102 97.9805 23.9062 97.9805 23.4453C97.9805 22.9062 97.9375 22.3672 97.8516 21.8281C97.7734 21.2812 97.6484 20.7578 97.4766 20.2578C97.3047 19.75 97.0898 19.2773 96.832 18.8398C96.582 18.3945 96.2812 18.0117 95.9297 17.6914C95.5859 17.3633 95.1953 17.1055 94.7578 16.918C94.3281 16.7305 93.8516 16.6367 93.3281 16.6367C92.7578 16.6367 92.2539 16.7578 91.8164 17C91.3867 17.2422 91.0117 17.5664 90.6914 17.9727C90.3789 18.3789 90.1172 18.8438 89.9062 19.3672C89.7031 19.8906 89.5391 20.4297 89.4141 20.9844C89.2891 21.5391 89.1992 22.0938 89.1445 22.6484C89.0977 23.1953 89.0742 23.6953 89.0742 24.1484ZM109.98 24.4531C110.918 24.1406 111.773 23.7852 112.547 23.3867C113.32 22.9883 113.984 22.5625 114.539 22.1094C115.102 21.6562 115.535 21.1797 115.84 20.6797C116.145 20.1797 116.297 19.668 116.297 19.1445C116.297 18.9258 116.254 18.7266 116.168 18.5469C116.09 18.3594 115.98 18.2031 115.84 18.0781C115.707 17.9453 115.547 17.8438 115.359 17.7734C115.18 17.7031 114.984 17.668 114.773 17.668C114.281 17.668 113.77 17.8203 113.238 18.125C112.715 18.4297 112.191 18.8711 111.668 19.4492C111.152 20.0273 110.648 20.7344 110.156 21.5703C109.664 22.4062 109.207 23.3555 108.785 24.418C108.363 25.4805 107.984 26.6484 107.648 27.9219C107.312 29.1953 107.043 30.5547 106.84 32L104.473 32.3047L104.285 32.293C104.332 31.3711 104.383 30.3555 104.438 29.2461C104.5 28.1289 104.562 26.9453 104.625 25.6953C104.695 24.4453 104.766 23.1445 104.836 21.793C104.914 20.4336 104.988 19.0508 105.059 17.6445C105.137 16.2383 105.215 14.8203 105.293 13.3906C105.371 11.9609 105.445 10.5508 105.516 9.16016C105.594 7.76172 105.668 6.39453 105.738 5.05859C105.809 3.72266 105.875 2.44531 105.938 1.22656C105.945 1.03906 106 0.878906 106.102 0.746094C106.203 0.605469 106.332 0.496094 106.488 0.417969C106.652 0.332031 106.836 0.269531 107.039 0.230469C107.242 0.191406 107.453 0.171875 107.672 0.171875C108.141 0.171875 108.633 0.296875 109.148 0.546875C108.969 2.14844 108.809 3.61719 108.668 4.95312C108.527 6.28906 108.398 7.53125 108.281 8.67969C108.172 9.82031 108.07 10.8906 107.977 11.8906C107.883 12.8828 107.797 13.8359 107.719 14.75C107.648 15.6562 107.578 16.5469 107.508 17.4219C107.445 18.2891 107.383 19.1719 107.32 20.0703C107.258 20.9688 107.191 21.8984 107.121 22.8594C107.059 23.8203 106.988 24.8516 106.91 25.9531L106.98 25.9648C107.262 25.0352 107.594 24.1172 107.977 23.2109C108.359 22.3047 108.781 21.4453 109.242 20.6328C109.703 19.8125 110.199 19.0586 110.73 18.3711C111.262 17.6758 111.816 17.0781 112.395 16.5781C112.973 16.0781 113.57 15.6875 114.188 15.4062C114.805 15.1172 115.43 14.9727 116.062 14.9727C116.461 14.9727 116.828 15.0391 117.164 15.1719C117.5 15.2969 117.789 15.4805 118.031 15.7227C118.281 15.957 118.473 16.2422 118.605 16.5781C118.746 16.9141 118.816 17.2891 118.816 17.7031C118.816 18.3516 118.676 18.9805 118.395 19.5898C118.113 20.1992 117.715 20.7852 117.199 21.3477C116.684 21.9102 116.062 22.4453 115.336 22.9531C114.617 23.4531 113.816 23.918 112.934 24.3477C113.457 25.3086 113.926 26.1328 114.34 26.8203C114.762 27.5 115.141 28.0742 115.477 28.543C115.82 29.0039 116.129 29.3711 116.402 29.6445C116.676 29.918 116.926 30.125 117.152 30.2656C117.387 30.4062 117.605 30.5 117.809 30.5469C118.012 30.5859 118.215 30.6055 118.418 30.6055C118.824 30.6055 119.246 30.543 119.684 30.418C120.121 30.293 120.562 30.1289 121.008 29.9258L121.23 30.5352C120.949 30.7617 120.594 30.9922 120.164 31.2266C119.734 31.4609 119.277 31.6758 118.793 31.8711C118.316 32.0664 117.84 32.2227 117.363 32.3398C116.895 32.4648 116.48 32.5273 116.121 32.5273C115.699 32.5273 115.277 32.3711 114.855 32.0586C114.441 31.7539 113.992 31.2773 113.508 30.6289C113.031 29.9805 112.504 29.1602 111.926 28.168C111.348 27.168 110.684 25.9766 109.934 24.5938L109.98 24.4531ZM146.543 26.1875C146.879 25.5469 147.121 24.8789 147.27 24.1836C147.426 23.4883 147.504 22.7852 147.504 22.0742C147.504 21.2461 147.379 20.4453 147.129 19.6719C146.887 18.8984 146.492 18.1836 145.945 17.5273C145.43 17.4648 144.996 17.4102 144.645 17.3633C144.301 17.3086 144.074 17.2617 143.965 17.2227C143.793 17.168 143.672 17.1055 143.602 17.0352C143.531 16.957 143.496 16.8633 143.496 16.7539C143.496 16.6523 143.547 16.5469 143.648 16.4375C143.758 16.3203 143.887 16.2109 144.035 16.1094C144.191 16 144.359 15.9023 144.539 15.8164C144.719 15.7227 144.883 15.6523 145.031 15.6055C145.805 15.8008 146.473 16.0664 147.035 16.4023C147.723 16.4023 148.367 16.3945 148.969 16.3789C149.57 16.3633 150.152 16.3359 150.715 16.2969C151.277 16.25 151.836 16.1953 152.391 16.1328C152.945 16.0703 153.523 15.9922 154.125 15.8984C154.266 16.2188 154.336 16.4844 154.336 16.6953C154.336 16.9453 154.254 17.1445 154.09 17.293C153.934 17.4414 153.707 17.5586 153.41 17.6445C153.113 17.7227 152.758 17.7773 152.344 17.8086C151.93 17.832 151.465 17.8438 150.949 17.8438C150.543 17.8438 150.125 17.8359 149.695 17.8203C149.266 17.8047 148.836 17.7812 148.406 17.75C148.625 18.0547 148.801 18.3672 148.934 18.6875C149.066 19 149.168 19.3047 149.238 19.6016C149.316 19.8906 149.367 20.1641 149.391 20.4219C149.414 20.6719 149.426 20.8906 149.426 21.0781C149.426 22.0781 149.254 23.0742 148.91 24.0664C148.566 25.0508 148.09 26.0352 147.48 27.0195C148.113 27.5586 148.738 28.0469 149.355 28.4844C149.973 28.9219 150.562 29.2969 151.125 29.6094C151.688 29.9219 152.211 30.1641 152.695 30.3359C153.188 30.5078 153.617 30.5938 153.984 30.5938C154.445 30.5938 154.832 30.5625 155.145 30.5C155.465 30.4375 155.789 30.3516 156.117 30.2422L156.434 31.1562C156.184 31.2734 155.883 31.4062 155.531 31.5547C155.188 31.7031 154.816 31.8477 154.418 31.9883C154.02 32.1211 153.602 32.2344 153.164 32.3281C152.734 32.4219 152.316 32.4688 151.91 32.4688C151.52 32.4688 151.09 32.3906 150.621 32.2344C150.152 32.0859 149.652 31.875 149.121 31.6016C148.598 31.3203 148.047 30.9805 147.469 30.582C146.898 30.1836 146.316 29.7383 145.723 29.2461C145.23 29.7461 144.695 30.2031 144.117 30.6172C143.547 31.0312 142.949 31.3906 142.324 31.6953C141.699 31.9922 141.051 32.2227 140.379 32.3867C139.715 32.5508 139.039 32.6328 138.352 32.6328C137.32 32.6328 136.344 32.4609 135.422 32.1172C134.508 31.7734 133.707 31.2812 133.02 30.6406C132.34 29.9922 131.797 29.2109 131.391 28.2969C130.992 27.375 130.793 26.3398 130.793 25.1914C130.793 24.1523 130.938 23.2148 131.227 22.3789C131.516 21.5352 131.898 20.7773 132.375 20.1055C132.859 19.4258 133.41 18.8203 134.027 18.2891C134.645 17.7578 135.285 17.2773 135.949 16.8477C135.496 15.8398 135.141 14.8672 134.883 13.9297C134.625 12.9844 134.496 12.0742 134.496 11.1992C134.496 10.3008 134.664 9.46094 135 8.67969C135.344 7.89062 135.801 7.20312 136.371 6.61719C136.949 6.03125 137.613 5.57031 138.363 5.23438C139.113 4.89062 139.898 4.71875 140.719 4.71875C141.367 4.71875 141.949 4.81641 142.465 5.01172C142.988 5.19922 143.434 5.46484 143.801 5.80859C144.168 6.15234 144.449 6.57031 144.645 7.0625C144.84 7.54688 144.938 8.08203 144.938 8.66797C144.938 9.22266 144.832 9.82812 144.621 10.4844C144.41 11.1328 144.066 11.8047 143.59 12.5C143.113 13.1953 142.492 13.8984 141.727 14.6094C140.961 15.3203 140.027 16.0078 138.926 16.6719C139.387 17.5156 139.906 18.3633 140.484 19.2148C141.062 20.0664 141.68 20.9023 142.336 21.7227C142.992 22.5352 143.676 23.3203 144.387 24.0781C145.098 24.8281 145.816 25.5312 146.543 26.1875ZM136.512 17.9844C136.098 18.3281 135.719 18.7031 135.375 19.1094C135.039 19.5078 134.746 19.9453 134.496 20.4219C134.254 20.8906 134.062 21.3984 133.922 21.9453C133.789 22.4922 133.723 23.0781 133.723 23.7031C133.723 24.8672 133.902 25.875 134.262 26.7266C134.621 27.5703 135.09 28.2695 135.668 28.8242C136.254 29.3711 136.91 29.7773 137.637 30.043C138.371 30.3008 139.113 30.4297 139.863 30.4297C140.324 30.4297 140.777 30.3828 141.223 30.2891C141.676 30.1953 142.113 30.0625 142.535 29.8906C142.957 29.7188 143.355 29.5117 143.73 29.2695C144.113 29.0273 144.469 28.7539 144.797 28.4492C144.023 27.7539 143.25 27 142.477 26.1875C141.703 25.3672 140.953 24.5078 140.227 23.6094C139.508 22.7109 138.832 21.7891 138.199 20.8438C137.566 19.8906 137.004 18.9375 136.512 17.9844ZM138.375 15.5938C139.094 15.1719 139.703 14.6953 140.203 14.1641C140.711 13.6328 141.121 13.0859 141.434 12.5234C141.746 11.9609 141.973 11.4062 142.113 10.8594C142.254 10.3125 142.324 9.80859 142.324 9.34766C142.324 8.91797 142.262 8.51953 142.137 8.15234C142.02 7.77734 141.852 7.45312 141.633 7.17969C141.414 6.89844 141.145 6.67969 140.824 6.52344C140.512 6.36719 140.164 6.28906 139.781 6.28906C139.242 6.28906 138.789 6.40234 138.422 6.62891C138.055 6.84766 137.758 7.14453 137.531 7.51953C137.305 7.88672 137.141 8.30859 137.039 8.78516C136.938 9.25391 136.887 9.73828 136.887 10.2383C136.887 11.043 137.016 11.8945 137.273 12.793C137.539 13.6914 137.906 14.625 138.375 15.5938ZM167.449 8.77344C167.449 8.40625 167.43 8.09375 167.391 7.83594C167.359 7.57031 167.281 7.35547 167.156 7.19141C167.031 7.02734 166.852 6.91016 166.617 6.83984C166.391 6.76172 166.086 6.72266 165.703 6.72266C165.445 6.72266 165.129 6.73828 164.754 6.76953C164.379 6.79297 163.988 6.83594 163.582 6.89844L163.465 5.92578C164.613 5.62891 165.598 5.41016 166.418 5.26953C167.246 5.12891 167.93 5.05859 168.469 5.05859C168.984 5.05859 169.379 5.12891 169.652 5.26953C169.934 5.40234 170.137 5.60547 170.262 5.87891C170.395 6.14453 170.473 6.47266 170.496 6.86328C170.52 7.25391 170.531 7.69922 170.531 8.19922C170.531 8.37109 170.52 8.83203 170.496 9.58203C170.48 10.3242 170.453 11.2812 170.414 12.4531C170.383 13.6172 170.344 14.957 170.297 16.4727C170.25 17.9883 170.199 19.6016 170.145 21.3125C170.098 23.0156 170.047 24.7773 169.992 26.5977C169.938 28.418 169.883 30.2188 169.828 32L167.051 32.3516L166.84 32.3281C166.934 30.0859 167.016 27.9648 167.086 25.9648C167.164 23.957 167.23 22.0078 167.285 20.1172C167.34 18.2188 167.379 16.3438 167.402 14.4922C167.434 12.6328 167.449 10.7266 167.449 8.77344ZM176.836 32.3047L176.648 32.293C176.711 31.5508 176.77 30.7422 176.824 29.8672C176.879 28.9922 176.93 28.1055 176.977 27.207C177.023 26.3008 177.062 25.4062 177.094 24.5234C177.133 23.6328 177.164 22.8047 177.188 22.0391C177.219 21.2656 177.238 20.5742 177.246 19.9648C177.262 19.3555 177.27 18.875 177.27 18.5234C177.27 18.2344 177.258 17.9844 177.234 17.7734C177.211 17.5625 177.156 17.3867 177.07 17.2461C176.992 17.1055 176.875 17.0039 176.719 16.9414C176.562 16.8711 176.352 16.8359 176.086 16.8359C175.953 16.8359 175.816 16.8438 175.676 16.8594C175.535 16.875 175.379 16.8984 175.207 16.9297C175.035 16.9609 174.84 17.0039 174.621 17.0586C174.41 17.1055 174.164 17.1641 173.883 17.2344L173.707 16.3906C175.004 15.9219 176.055 15.5938 176.859 15.4062C177.664 15.2109 178.207 15.1133 178.488 15.1133C179.004 15.1133 179.371 15.2656 179.59 15.5703C179.816 15.8672 179.93 16.3125 179.93 16.9062C179.93 16.9609 179.922 17.1211 179.906 17.3867C179.891 17.6523 179.867 18 179.836 18.4297C179.812 18.8516 179.781 19.3438 179.742 19.9062C179.703 20.4688 179.656 21.0742 179.602 21.7227C179.555 22.3633 179.5 23.0352 179.438 23.7383C179.375 24.4336 179.309 25.1289 179.238 25.8242L179.355 25.8359C179.73 24.3047 180.152 22.8789 180.621 21.5586C181.098 20.2305 181.629 19.0781 182.215 18.1016C182.809 17.125 183.457 16.3594 184.16 15.8047C184.871 15.2422 185.648 14.9609 186.492 14.9609C186.789 14.9609 187.066 15.0078 187.324 15.1016C187.582 15.1953 187.805 15.3281 187.992 15.5C188.18 15.6641 188.328 15.8633 188.438 16.0977C188.547 16.3242 188.602 16.5742 188.602 16.8477C188.602 17.1992 188.523 17.5391 188.367 17.8672C188.219 18.1875 187.98 18.4727 187.652 18.7227H187.559C187.23 18.4492 186.918 18.2539 186.621 18.1367C186.332 18.0117 186.023 17.9492 185.695 17.9492C185.344 17.9492 185.004 18.0156 184.676 18.1484C184.348 18.2812 184.047 18.4727 183.773 18.7227C183.328 19.1289 182.914 19.668 182.531 20.3398C182.148 21.0039 181.797 21.7422 181.477 22.5547C181.164 23.3672 180.879 24.2227 180.621 25.1211C180.371 26.0117 180.152 26.8828 179.965 27.7344C179.785 28.5781 179.637 29.375 179.52 30.125C179.41 30.8672 179.332 31.4922 179.285 32L176.836 32.3047ZM192.82 10.2148C192.547 10.2148 192.305 10.1602 192.094 10.0508C191.883 9.93359 191.703 9.78516 191.555 9.60547C191.406 9.41797 191.293 9.20703 191.215 8.97266C191.137 8.73047 191.098 8.48438 191.098 8.23438C191.098 7.88281 191.156 7.57422 191.273 7.30859C191.391 7.03516 191.543 6.80859 191.73 6.62891C191.918 6.44141 192.125 6.30469 192.352 6.21875C192.578 6.125 192.801 6.07812 193.02 6.07812C193.285 6.07812 193.523 6.12891 193.734 6.23047C193.945 6.32422 194.125 6.45703 194.273 6.62891C194.43 6.80078 194.547 7 194.625 7.22656C194.711 7.44531 194.754 7.68359 194.754 7.94141C194.754 8.21484 194.707 8.48828 194.613 8.76172C194.52 9.02734 194.387 9.26953 194.215 9.48828C194.051 9.70703 193.848 9.88281 193.605 10.0156C193.371 10.1484 193.109 10.2148 192.82 10.2148ZM193.84 15.5117C193.707 16.4023 193.594 17.2969 193.5 18.1953C193.406 19.0859 193.328 19.9492 193.266 20.7852C193.211 21.6211 193.168 22.4141 193.137 23.1641C193.113 23.9062 193.102 24.5781 193.102 25.1797C193.102 25.9922 193.113 26.6914 193.137 27.2773C193.16 27.8555 193.199 28.3438 193.254 28.7422C193.309 29.1406 193.375 29.4609 193.453 29.7031C193.539 29.9375 193.641 30.1211 193.758 30.2539C193.883 30.3789 194.023 30.4609 194.18 30.5C194.344 30.5391 194.527 30.5586 194.73 30.5586C195.105 30.5586 195.508 30.5039 195.938 30.3945C196.375 30.2773 196.816 30.1172 197.262 29.9141L197.484 30.5234C197.203 30.75 196.848 30.9805 196.418 31.2148C195.996 31.4492 195.551 31.6641 195.082 31.8594C194.613 32.0547 194.152 32.2109 193.699 32.3281C193.254 32.4531 192.867 32.5156 192.539 32.5156C192.32 32.5156 192.121 32.4961 191.941 32.457C191.762 32.4258 191.598 32.3398 191.449 32.1992C191.309 32.0586 191.18 31.8516 191.062 31.5781C190.953 31.3047 190.859 30.9336 190.781 30.4648C190.711 29.9961 190.656 29.4102 190.617 28.707C190.578 28.0039 190.559 27.1523 190.559 26.1523C190.559 25.5664 190.562 24.9062 190.57 24.1719C190.586 23.4297 190.605 22.6367 190.629 21.793C190.652 20.9414 190.684 20.0469 190.723 19.1094C190.762 18.1641 190.812 17.1914 190.875 16.1914C190.891 15.9727 190.949 15.7969 191.051 15.6641C191.152 15.5234 191.277 15.418 191.426 15.3477C191.574 15.2695 191.73 15.2188 191.895 15.1953C192.066 15.1641 192.223 15.1484 192.363 15.1484C192.887 15.1484 193.379 15.2695 193.84 15.5117ZM200.18 27.7695C200.234 28.3633 200.391 28.875 200.648 29.3047C200.914 29.7344 201.238 30.0859 201.621 30.3594C202.004 30.6328 202.426 30.8359 202.887 30.9688C203.355 31.1016 203.82 31.168 204.281 31.168C204.711 31.168 205.125 31.1094 205.523 30.9922C205.922 30.875 206.273 30.707 206.578 30.4883C206.883 30.2695 207.125 30 207.305 29.6797C207.492 29.3594 207.586 29 207.586 28.6016C207.586 28.1875 207.488 27.8242 207.293 27.5117C207.098 27.1992 206.836 26.9141 206.508 26.6562C206.18 26.3984 205.797 26.1602 205.359 25.9414C204.93 25.7227 204.48 25.5 204.012 25.2734C203.598 25.0781 203.18 24.8828 202.758 24.6875C202.344 24.4844 201.941 24.2656 201.551 24.0312C201.16 23.7969 200.793 23.543 200.449 23.2695C200.113 22.9961 199.816 22.6953 199.559 22.3672C199.309 22.0312 199.109 21.6602 198.961 21.2539C198.82 20.8398 198.75 20.3828 198.75 19.8828C198.75 19.3438 198.844 18.8477 199.031 18.3945C199.219 17.9414 199.473 17.5352 199.793 17.1758C200.121 16.8086 200.496 16.4883 200.918 16.2148C201.348 15.9414 201.805 15.7148 202.289 15.5352C202.773 15.3477 203.27 15.2109 203.777 15.125C204.293 15.0312 204.793 14.9844 205.277 14.9844C205.902 14.9844 206.492 15.0547 207.047 15.1953C207.609 15.3281 208.098 15.5273 208.512 15.793C208.934 16.0508 209.266 16.3672 209.508 16.7422C209.758 17.1172 209.883 17.5391 209.883 18.0078C209.883 18.1875 209.852 18.3828 209.789 18.5938C209.727 18.8047 209.621 19.0039 209.473 19.1914C209.324 19.3711 209.129 19.5234 208.887 19.6484C208.645 19.7734 208.348 19.8398 207.996 19.8477C207.668 19.8477 207.324 19.7969 206.965 19.6953L206.93 19.5781C207.039 19.3281 207.117 19.0977 207.164 18.8867C207.211 18.6758 207.234 18.4805 207.234 18.3008C207.227 17.9414 207.133 17.6406 206.953 17.3984C206.781 17.1484 206.562 16.9453 206.297 16.7891C206.031 16.6328 205.734 16.5195 205.406 16.4492C205.086 16.3789 204.77 16.3438 204.457 16.3438C203.902 16.3438 203.406 16.418 202.969 16.5664C202.531 16.7148 202.16 16.9141 201.855 17.1641C201.559 17.4062 201.328 17.6836 201.164 17.9961C201.008 18.3086 200.93 18.6328 200.93 18.9688C200.93 19.3984 201.043 19.7852 201.27 20.1289C201.496 20.4648 201.797 20.7773 202.172 21.0664C202.547 21.3477 202.977 21.6133 203.461 21.8633C203.953 22.1133 204.465 22.3633 204.996 22.6133C205.59 22.8945 206.18 23.1875 206.766 23.4922C207.352 23.7891 207.875 24.1289 208.336 24.5117C208.797 24.8945 209.168 25.3359 209.449 25.8359C209.738 26.3281 209.883 26.9102 209.883 27.582C209.883 28.3867 209.703 29.1016 209.344 29.7266C208.992 30.3516 208.52 30.8789 207.926 31.3086C207.332 31.7383 206.648 32.0625 205.875 32.2812C205.109 32.5078 204.312 32.6211 203.484 32.6211C203.07 32.6211 202.641 32.5898 202.195 32.5273C201.758 32.4648 201.332 32.3711 200.918 32.2461C200.504 32.1211 200.109 31.9688 199.734 31.7891C199.367 31.6016 199.043 31.3906 198.762 31.1562C198.488 30.9141 198.27 30.6484 198.105 30.3594C197.949 30.0625 197.871 29.7383 197.871 29.3867C197.871 29.082 197.934 28.8242 198.059 28.6133C198.191 28.4023 198.363 28.2305 198.574 28.0977C198.785 27.9648 199.02 27.8672 199.277 27.8047C199.543 27.7344 199.812 27.6953 200.086 27.6875L200.18 27.7695ZM215.941 25.7773C216.543 23.8008 217.18 22.125 217.852 20.75C218.531 19.375 219.219 18.2617 219.914 17.4102C220.617 16.5508 221.316 15.9297 222.012 15.5469C222.707 15.1641 223.371 14.9727 224.004 14.9727C224.441 14.9727 224.863 15.0586 225.27 15.2305C225.676 15.3945 226.035 15.6523 226.348 16.0039C226.668 16.3555 226.922 16.8086 227.109 17.3633C227.297 17.918 227.391 18.582 227.391 19.3555C227.391 19.5898 227.375 19.9102 227.344 20.3164C227.32 20.7148 227.289 21.1641 227.25 21.6641C227.211 22.1562 227.164 22.6758 227.109 23.2227C227.062 23.7695 227.02 24.3086 226.98 24.8398C226.941 25.3711 226.906 25.875 226.875 26.3516C226.852 26.8281 226.84 27.2383 226.84 27.582C226.84 28.1914 226.863 28.6875 226.91 29.0703C226.965 29.4531 227.051 29.7578 227.168 29.9844C227.285 30.2031 227.441 30.3555 227.637 30.4414C227.832 30.5195 228.07 30.5586 228.352 30.5586C228.758 30.5586 229.18 30.5039 229.617 30.3945C230.055 30.2773 230.496 30.1172 230.941 29.9141L231.164 30.5234C230.883 30.75 230.527 30.9805 230.098 31.2148C229.668 31.4492 229.215 31.6641 228.738 31.8594C228.27 32.0547 227.801 32.2109 227.332 32.3281C226.863 32.4531 226.449 32.5156 226.09 32.5156C225.668 32.5156 225.336 32.4023 225.094 32.1758C224.852 31.9492 224.668 31.6406 224.543 31.25C224.426 30.8594 224.348 30.4023 224.309 29.8789C224.277 29.3555 224.262 28.793 224.262 28.1914C224.262 27.4648 224.285 26.7148 224.332 25.9414C224.387 25.168 224.441 24.4258 224.496 23.7148C224.559 23.0039 224.613 22.3555 224.66 21.7695C224.715 21.1758 224.742 20.6992 224.742 20.3398C224.742 19.4727 224.574 18.8242 224.238 18.3945C223.902 17.957 223.449 17.7383 222.879 17.7383C222.434 17.7383 221.957 17.9297 221.449 18.3125C220.949 18.6953 220.449 19.2227 219.949 19.8945C219.457 20.5586 218.98 21.3477 218.52 22.2617C218.059 23.168 217.645 24.1523 217.277 25.2148C216.91 26.2695 216.605 27.375 216.363 28.5312C216.121 29.6875 215.969 30.8438 215.906 32L213.41 32.3047L213.223 32.293C213.27 31.3711 213.32 30.3555 213.375 29.2461C213.438 28.1289 213.5 26.9453 213.562 25.6953C213.633 24.4453 213.703 23.1445 213.773 21.793C213.852 20.4336 213.926 19.0508 213.996 17.6445C214.074 16.2383 214.152 14.8203 214.23 13.3906C214.309 11.9609 214.383 10.5508 214.453 9.16016C214.531 7.76172 214.605 6.39453 214.676 5.05859C214.746 3.72266 214.812 2.44531 214.875 1.22656C214.883 1.03906 214.938 0.878906 215.039 0.746094C215.141 0.605469 215.27 0.496094 215.426 0.417969C215.59 0.332031 215.773 0.269531 215.977 0.230469C216.18 0.191406 216.391 0.171875 216.609 0.171875C217.078 0.171875 217.57 0.296875 218.086 0.546875C217.906 2.14062 217.746 3.60547 217.605 4.94141C217.465 6.26953 217.336 7.50391 217.219 8.64453C217.109 9.77734 217.008 10.8359 216.914 11.8203C216.828 12.8047 216.746 13.75 216.668 14.6562C216.598 15.5547 216.531 16.4336 216.469 17.293C216.406 18.1523 216.344 19.0273 216.281 19.918C216.219 20.8008 216.152 21.7227 216.082 22.6836C216.02 23.6367 215.949 24.6641 215.871 25.7656L215.941 25.7773Z" fill="current" />
</svg>
