<svg xmlns="http://www.w3.org/2000/svg" width="79.245" height="61.574" viewBox="0 0 79.245 61.574">
  <path id="Love-Heart-Icon-SVG-pvds" d="M32.052,61.565C29.325,60.911,5.231,54.818.68,41.021A13.352,13.352,0,0,1,13.35,23.45a13.615,13.615,0,0,1,5.859,1.327l.915.437c.21.124.444.2.645.329.082-.227.206-.433.3-.653l.468-.883A13.565,13.565,0,0,1,26.3,18.882l2.16-1.067a6.325,6.325,0,0,1,.742-.294A13.383,13.383,0,0,1,46.1,26.051c1.546,4.682.89,10.5-1.93,17.258l-1.049,2.359A80.647,80.647,0,0,1,33.155,61.15a1.185,1.185,0,0,1-.894.425ZM46.845,49.1c-.106-.089-.482-.418-1.028-.915.17-.347.355-.678.521-1.029l1.089-2.436c3.171-7.612,3.855-14.266,2.036-19.777A16.928,16.928,0,0,0,28.139,14.134a10.931,10.931,0,0,0-1.156.457l-.915.454a17.316,17.316,0,0,1,.163-2.465A14.937,14.937,0,0,1,43.338.191,14.981,14.981,0,0,1,54.081,7.813,14.991,14.991,0,0,1,66.672,3.926a14.93,14.93,0,0,1,12.381,17.1C76.425,37.474,49.239,48.817,48.083,49.3a1.223,1.223,0,0,1-.458.089A1.192,1.192,0,0,1,46.845,49.1Z" transform="translate(0)"/>
</svg>
