<svg xmlns="http://www.w3.org/2000/svg" width="1em" height="1em" preserveAspectRatio="xMidYMid meet" viewBox="0 0 24 24">
    <path fill="currentColor" d="M 12.031 5.994 L 12.038 13.541 C 11.616 13.298 11.129 13.148 10.607 13.148 C 8.404 13.099 6.974 15.453 8.033 17.385 C 8.546 18.322 9.539 18.895 10.607 18.871 C 12.195 18.871 13.461 17.591 13.461 16.01 L 13.461 8.855 L 16.323 8.855 L 16.323 5.994 L 12.031 5.994 Z M 10.607 17.44 C 9.82 17.44 9.176 16.797 9.176 16.01 C 9.176 15.223 9.82 14.579 10.607 14.579 C 11.394 14.579 12.038 15.223 12.038 16.01 C 12.038 16.797 11.394 17.44 10.607 17.44 Z" style=""/>
    <circle cx="12" cy="12" r="8" fill="currentColor" opacity=".3"/><path fill="currentColor" d="M12 2C6.47 2 2 6.47 2 12s4.47 10 10 10s10-4.47 10-10S17.53 2 12 2zm0 18c-4.42 0-8-3.58-8-8s3.58-8 8-8s8 3.58 8 8s-3.58 8-8 8z"/>
</svg>

