<svg height="56" width="56" version="1.1" viewBox="0 0 96 96" xmlns="http://www.w3.org/2000/svg" xmlns:xlink="http://www.w3.org/1999/xlink" id="Icons_Suit" overflow="hidden"><path d=" M 48 69 C 46.9 69 46 68.1 46 67 C 46 65.9 46.9 65 48 65 C 49.1 65 50 65.9 50 67 C 50 68.1 49.1 69 48 69 Z M 48 76 C 46.9 76 46 75.1 46 74 C 46 72.9 46.9 72 48 72 C 49.1 72 50 72.9 50 74 C 50 75.1 49.1 76 48 76 Z M 76.9 28.4 C 76.1 21 70.5 15.3 63.3 14.2 L 67.8 23.1 C 68.1 23.7 68.1 24.5 67.7 25.1 L 43 64.6 L 43 82 L 67 82 L 67 49.3 L 69.9 77.6 C 70 78.1 70.4 78.5 71 78.5 L 80.9 77.5 C 81.4 77.4 81.8 77 81.8 76.4 L 76.9 28.4 Z"/><path d=" M 42.3 39.9 L 35.5 17.4 L 32.3 23.9 Z"/><path d=" M 63.7 23.9 L 60.5 17.4 L 53.7 39.9 Z"/><path d=" M 28.3 25.1 C 27.9 24.5 27.9 23.8 28.2 23.1 L 32.7 14.2 C 25.6 15.3 19.9 21 19.1 28.4 L 14.1 76.4 C 14 76.9 14.4 77.4 15 77.5 L 24.9 78.5 C 25.4 78.6 25.9 78.2 26 77.6 L 29 49.3 L 29 82 L 39 82 L 39 64 C 39 63.6 39.1 63.3 39.3 62.9 L 45.6 52.8 L 28.3 25.1 Z"/><path d=" M 57.3 14 L 38.7 14 L 48 45 Z"/></svg>